HIERARCHY
ROOT pelvis
{
  OFFSET 0 100 0
  CHANNELS 6 Xposition Yposition Zposition Zrotation Xrotation Yrotation
  JOINT pelvis_right_femur
  {
    OFFSET -10.78128 -3.44521 -0.5502486
    CHANNELS 3 Zrotation Xrotation Yrotation
    JOINT right_femur_tibia
    {
      OFFSET -0.8047443 -44.0398 -0.1307829
      CHANNELS 3 Zrotation Xrotation Yrotation
      JOINT right_tibia_foot
      {
        OFFSET 3.006224 -47.83518 -5
        CHANNELS 3 Zrotation Xrotation Yrotation
        End Site
        {
          OFFSET 0 -5 15
        }
      }
    }
  }
  JOINT pelvis_left_femur
  {
    OFFSET 10.78128 -3.44521 -0.5502486
    CHANNELS 3 Zrotation Xrotation Yrotation
    JOINT left_femur_tibia
    {
      OFFSET 0.8047443 -44.0398 -0.1307829
      CHANNELS 3 Zrotation Xrotation Yrotation
      JOINT left_tibia_foot
      {
        OFFSET -4.370144 -48.10324 -4.275266
        CHANNELS 3 Zrotation Xrotation Yrotation
        End Site
        {
          OFFSET 0 -5 15
        }
      }
    }
  }
  JOINT pelvis_spine1
  {
    OFFSET 0 6.468898 -3.129235
    CHANNELS 3 Zrotation Xrotation Yrotation
    JOINT spine1
    {
      OFFSET 0 23.15396 4.99043
      CHANNELS 3 Zrotation Xrotation Yrotation
      JOINT spine2
      {
        OFFSET 0 20.79997 -5.064912
        CHANNELS 3 Zrotation Xrotation Yrotation
        JOINT neck
        {
          OFFSET 0 14.38658 9.616178
          CHANNELS 3 Zrotation Xrotation Yrotation
          End Site
          {
            OFFSET 0 20 0
          }
        }
      }
      JOINT right_manubrium
      {
        OFFSET -5.722621 16.35077 3.967754
        CHANNELS 3 Zrotation Xrotation Yrotation
        JOINT right_clavicle
        {
          OFFSET -13.16364 1.694482 -4.693211
          CHANNELS 3 Zrotation Xrotation Yrotation
          JOINT right_humerus
          {
            OFFSET -28.5034 -0.3100689 -2.792744
            CHANNELS 3 Zrotation Xrotation Yrotation
            JOINT right_radius
            {
              OFFSET -25.15693 0.02248979 -1.271978
              CHANNELS 3 Zrotation Xrotation Yrotation
              End Site
              {
                OFFSET -15 0 0
              }
            }
          }
        }
      }
      JOINT left_manubrium
      {
        OFFSET 5.722621 16.35077 3.967754
        CHANNELS 3 Zrotation Xrotation Yrotation
        JOINT left_clavicle
        {
          OFFSET 13.16364 1.694482 -4.693211
          CHANNELS 3 Zrotation Xrotation Yrotation
          JOINT left_humerus
          {
            OFFSET 29.39168 -1.063119 -2.237045
            CHANNELS 3 Zrotation Xrotation Yrotation
            JOINT left_radius
            {
              OFFSET 24.59957 -0.9528479 0.9047498
              CHANNELS 3 Zrotation Xrotation Yrotation
              End Site
              {
                OFFSET 15 -0 -0
              }
            }
          }
        }
      }
    }
  }
}
MOTION
Frames: 21
Frame Time: 0.0416666666667
0 103.5113 0 1.086385 0.003954163 -0.04930729 3.473306 -17.61106 9.866297 -0 39.72579 -0 -7.060456 -17.09228 -2.298058 -7.332667 10.02337 -24.4852 -0 5.542388 -0 13.62857 -13.98132 28.85343 -3.658282 -4.305575 5.287514 2.333707 9.951471 -7.104724 1.765653 22.01586 6.334535 3.035955 -25.0824 9.831541 6.815364 -20.17876 11.62081 84.89984 37.13074 -17.44449 -0 0 16.62689 -5.669107 7.647346 3.645528 6.20791 -19.33186 -0.8670946 -92.72973 20.80549 20.89172 0 0 -13.09642 16.96974 16.32212 -5.448008
0.3129241 103.5525 1.457034 0.9188216 0.5549837 -0.1134822 4.015994 -18.85395 10.22951 -0 38.65455 -0 -6.769322 -17.35143 -2.363129 -7.302627 10.10732 -24.37055 -0 5.579351 -0 13.84462 -14.23512 28.89767 -3.624421 -4.262787 5.359186 2.53416 9.892453 -7.289231 1.749623 21.79617 6.341978 2.999184 -25.44631 9.893615 6.886753 -20.22231 11.63257 84.92329 37.54791 -17.7541 -0 0 16.70775 -5.0768 7.561501 3.418077 6.230136 -19.38031 -0.7138455 -92.79803 21.12669 21.05452 0 0 -13.82009 16.77464 16.01532 -5.068262
0.6796442 103.0401 4.015551 -0.1210675 -0.1064662 -0.002111536 4.596724 -24.97209 7.110759 -0 32.75178 -0 -6.355791 -9.659593 -2.144375 -6.240461 11.04335 -19.92273 -0 5.814277 -0 11.15899 -16.48196 25.66178 -2.802851 -2.538971 4.219171 2.570073 10.56033 -7.628524 1.594654 21.48635 6.967813 3.188542 -24.86402 9.795741 5.321569 -19.65952 11.75829 86.8301 34.5209 -18.90191 -0 0 14.11907 -10.09537 9.211078 5.937452 6.615914 -21.02284 -2.368844 -90.33559 20.38866 18.18555 0 0 -18.2423 15.05882 14.59869 -2.930582
1.035109 102.4378 6.966858 -0.4935111 0.701279 0.15635 5.356634 -28.34692 6.544885 -0 28.52972 -0 -6.030872 -7.698818 -1.919329 -6.079228 11.74874 -18.62375 -0 6.430905 -0 10.57752 -17.59648 24.5062 -2.625382 -2.055707 4.010291 2.852 10.59337 -7.923046 1.53823 21.11918 7.104934 3.221909 -25.28286 9.821659 5.054403 -19.39798 11.77536 87.44869 34.59896 -19.81416 -0 0 13.18487 -10.35602 9.448284 6.205077 6.729932 -21.54266 -2.609795 -89.62865 20.85342 17.48132 0 0 -20.74066 14.35102 13.77591 -1.900996
1.379262 101.6454 10.46083 -0.7066307 1.21608 0.4004735 5.650613 -31.28692 5.152951 -0 23.41176 -0 -5.990876 -4.92048 -1.444709 -6.006164 12.66581 -16.99053 -0 7.470442 -0 9.522174 -18.77394 22.75788 -2.452594 -1.524153 3.705949 2.979428 10.65799 -8.065424 1.482163 20.91394 7.215793 3.269341 -25.40426 9.739086 4.559714 -18.95755 11.76035 88.34081 34.16474 -20.76546 -0 0 11.69885 -11.20046 9.684039 6.754259 6.877837 -22.22175 -3.088977 -88.52223 21.07546 16.20773 0 0 -23.46243 13.69879 12.99112 -1.082464
1.698727 100.6883 14.50464 -0.71347 1.266487 0.7247481 5.40206 -32.7636 3.382994 -0 18.80169 -0 -6.216683 -2.276458 -1.020272 -6.01838 13.61515 -15.42203 -0 8.757379 -0 8.03766 -19.82373 20.78293 -2.30213 -1.165526 3.401528 2.943677 10.67389 -8.071902 1.437139 20.95799 7.20523 3.222729 -25.25723 9.544922 3.909768 -18.50224 11.68459 89.30446 33.04337 -21.61361 -0 0 10.08786 -12.36537 9.832385 7.41805 6.97044 -22.87902 -3.619837 -87.46538 21.33349 14.85306 0 0 -25.62409 12.82202 12.66198 -0.09092387
1.980696 99.56923 19.17689 -0.5023312 0.7122656 1.126507 4.58154 -32.80113 1.046072 -0 14.42911 -0 -6.627151 0.3269788 -0.7561491 -6.07762 14.59524 -13.56568 -0 10.42849 -0 6.07156 -20.6398 18.41741 -2.133705 -0.9867698 3.086766 2.717271 10.69978 -7.989734 1.37568 21.24574 7.084142 3.074613 -24.63755 9.167508 2.981174 -18.00076 11.55575 90.46066 30.93138 -22.43592 -0 0 8.236433 -14.24173 9.981399 8.305781 7.057434 -23.68372 -4.298715 -86.20681 21.2716 13.06529 0 0 -27.4911 11.82735 12.6556 0.9023681
2.213787 98.35983 24.49894 -0.1400765 -0.2061562 1.595564 3.661192 -31.54713 -1.162904 -0 10.65782 -0 -7.064725 2.31725 -0.8491359 -6.158898 15.48031 -11.60534 -0 12.65935 -0 4.075934 -20.96806 16.09261 -1.945372 -1.114098 2.871801 2.396334 10.74359 -7.924885 1.303739 21.64793 6.840619 2.814139 -23.72222 8.659916 1.890696 -17.56336 11.38978 91.74172 28.21489 -23.30016 -0 0 6.426999 -16.34802 10.09943 9.162308 7.10843 -24.57721 -4.943728 -84.94761 20.88064 11.17106 0 0 -29.0716 10.83796 12.82865 1.844756
2.389616 97.17311 30.46308 0.245301 -1.332525 2.090662 3.057443 -29.30166 -2.75296 -0 7.907061 -0 -7.468443 3.603553 -1.377155 -6.165319 16.16313 -9.632894 -0 15.90413 -0 2.41051 -20.47494 14.12784 -1.660321 -1.611896 2.797684 2.046579 10.90542 -7.965656 1.211211 22.02369 6.51848 2.499061 -22.65302 8.058986 0.7273918 -17.29272 11.2278 93.12847 25.22361 -24.27216 -0 0 4.864321 -18.46586 10.2462 9.851466 7.091901 -25.54985 -5.50195 -83.84078 20.02262 9.506528 0 0 -30.43715 10.0371 13.01624 2.578808
2.508437 96.21008 36.9871 0.3853154 -2.321893 2.519176 3.222477 -26.75973 -3.174796 -0 6.784871 -0 -7.835442 4.273842 -2.228017 -5.926093 16.46088 -7.969744 -0 20.80834 -0 1.349408 -18.80136 12.82496 -1.133411 -2.430764 2.87794 1.782792 11.29766 -8.191229 1.085745 22.14442 6.237586 2.248528 -21.81075 7.484722 -0.250305 -17.32416 11.14162 94.44614 22.71987 -25.36422 -0 0 3.906302 -20.14748 10.54652 10.21531 6.911758 -26.4398 -5.906712 -83.21322 18.83206 8.813356 0 0 -31.50341 9.508901 13.02206 3.123562
2.582787 95.74165 43.87957 -0.01392198 -2.753924 2.75359 4.389435 -24.65764 -2.226188 -0 7.608288 -0 -8.264466 4.565785 -2.973932 -5.272534 15.98803 -7.038488 -0 28.07851 -0 0.7752779 -15.67621 12.10853 -0.2057392 -3.326132 3.103976 1.708443 11.97961 -8.594381 0.9027426 21.80078 6.168332 2.208205 -21.6791 7.087586 -0.6678561 -17.7522 11.23213 95.3859 21.69917 -26.47545 -0 0 3.917442 -20.90733 11.13124 10.20131 6.41739 -26.96069 -6.146436 -83.37492 17.72024 9.944634 0 0 -32.02835 9.163185 12.6911 3.715016
2.645223 96.00397 50.83556 -0.983319 -2.372111 2.735557 6.321303 -23.05907 -0.2740035 -0 9.834023 -0 -8.827186 4.408245 -3.099256 -4.227073 13.99894 -7.077297 -0 37.71907 -0 0.1885675 -11.30674 11.51012 1.077823 -3.880766 3.509168 1.846174 12.83012 -9.022766 0.6617846 20.99776 6.388326 2.414554 -22.54401 6.979277 -0.2416811 -18.55526 11.58651 95.64662 22.86433 -27.31033 -0 0 5.049062 -20.48797 11.99602 9.973519 5.468555 -26.8204 -6.227623 -84.42409 17.30431 13.26964 0 0 -31.74064 8.621453 12.02169 4.907424
2.75213 97.00979 57.53166 -2.011199 -1.519837 2.538681 8.078835 -20.83075 1.655271 -0 11.94371 -0 -9.361504 3.229076 -2.534639 -3.159473 9.641162 -7.657056 -0 48.20121 -0 -0.7584766 -6.721289 10.66064 2.255445 -3.759636 4.207937 2.056114 13.57885 -9.210032 0.4299018 20.12032 6.714433 2.688582 -24.00195 7.091374 0.8363098 -19.5636 12.18037 95.16468 25.7146 -27.39772 -0 0 6.991891 -19.39467 12.95238 9.938838 4.133575 -26.05833 -6.161698 -86.0773 17.90219 17.93569 0 0 -30.66473 7.488359 11.23596 7.128379
2.947008 98.45108 63.77377 -2.297003 -1.124009 2.250715 8.502648 -16.55786 2.50612 -0 12.48498 -0 -9.469914 0.6433893 -1.844243 -2.514218 2.901741 -7.838961 -0 56.56717 -0 -1.739977 -3.476506 9.877648 2.615433 -3.014725 5.283257 2.095148 14.026 -8.929399 0.3269014 19.74206 6.806052 2.773633 -24.95846 7.171265 1.885031 -20.50559 12.80511 94.0559 28.57156 -26.31945 -0 0 9.098506 -18.81537 13.80553 10.42979 2.854268 -25.14631 -5.987903 -87.68634 19.09698 22.02158 0 0 -29.12941 5.951184 10.65453 9.806727
3.203374 99.86268 69.54675 -1.568358 -1.78345 1.921696 7.486533 -10.31682 2.203898 -0 11.43241 -0 -9.16353 -2.752997 -1.455024 -2.217506 -4.831898 -7.205206 -0 60.27666 -0 -2.127442 -2.453702 9.922209 1.885531 -2.056763 6.531891 1.823882 14.14402 -8.141002 0.4118592 20.13528 6.544146 2.696433 -24.58269 7.023662 2.379658 -21.11289 13.19532 92.38773 30.22673 -23.99974 -0 0 10.88118 -19.35575 14.43109 11.20489 2.243364 -24.49422 -5.75641 -88.75647 20.03717 24.10377 0 0 -27.22116 4.94223 10.64022 11.2685
3.452053 100.8885 74.94838 -0.4329507 -3.036668 1.582197 6.121215 -3.767217 1.450511 -0 9.788038 -0 -9.048498 -6.003291 -1.125822 -1.723896 -11.8655 -6.199735 -0 58.81111 -0 -1.785967 -3.003758 11.1547 0.630569 -1.24999 7.480964 1.323081 13.94475 -7.031223 0.5912197 21.01555 6.130562 2.735929 -23.21336 6.664222 2.382794 -21.3296 13.26648 90.19353 31.01897 -20.73595 -0 0 12.38409 -20.30174 14.66476 11.66588 2.536411 -23.98828 -5.447516 -89.50316 20.29819 24.52229 0 0 -24.70569 5.152025 11.34116 10.46024
3.658915 101.3265 80.11838 0.3366041 -4.136927 1.125719 5.390335 1.845004 0.9013785 -0 8.047132 -0 -9.155967 -8.773134 -0.6989802 -0.5894244 -17.46863 -5.106135 -0 52.86069 -0 -0.9804561 -3.758831 13.30383 -0.3268245 -0.7364874 7.880062 0.7701907 13.56941 -5.958712 0.7417236 21.76296 5.719975 2.868372 -21.78514 6.213501 2.023749 -21.55498 13.11351 87.80112 31.35053 -17.07957 -0 0 14.15083 -21.04008 14.55033 11.79454 3.326786 -23.34172 -5.108748 -90.27084 20.01883 24.5141 0 0 -21.82604 6.054611 12.12526 8.425664
3.857351 101.0794 85.1836 0.3880034 -4.870693 0.4234855 5.519037 6.404164 1.053596 -0 6.327576 -0 -8.780059 -11.15214 -0.5396465 1.284336 -21.53457 -3.676604 -0 43.38285 -0 0.07030846 -3.85973 15.59146 -0.5295437 -0.6308496 7.91128 0.3334668 13.38796 -5.273157 0.8666644 21.8184 5.187234 2.618609 -20.94088 5.83905 1.161799 -22.54536 12.8855 86.04641 30.53354 -13.78157 -0 0 16.82849 -21.79679 14.60162 12.2857 3.816267 -22.55373 -4.938988 -91.06175 19.40707 25.30532 0 0 -19.5085 6.265678 12.20187 7.502433
4.131847 100.2145 90.25469 -0.2355398 -5.312731 -0.4632699 6.185131 10.09355 1.910202 -0 5.425776 -0 -7.808722 -13.38979 -0.9501552 3.502471 -23.92674 -1.905211 -0 32.15794 -0 1.116108 -3.376322 16.95907 -0.03145038 -1.005139 7.849788 0.1893119 13.57715 -5.108065 0.9866116 21.13829 4.36606 1.605101 -20.83656 5.65023 -0.1342672 -24.69235 12.69668 85.56649 27.97958 -11.36189 -0 0 20.36398 -22.56604 15.19058 13.63155 3.405306 -21.81676 -4.994803 -91.88709 18.7733 27.72203 0 0 -18.38261 4.950782 11.68788 9.094166
4.560929 98.98896 95.5203 -1.069573 -5.587108 -1.345222 6.622177 13.12056 2.63418 -0 6.458678 -0 -6.999085 -15.62527 -1.633952 5.024707 -24.59781 -0.651089 -0 21.87471 -0 1.73676 -3.019398 17.28674 0.5931325 -1.623798 7.753967 0.3303214 13.68709 -5.238147 1.054569 20.40999 3.552888 0.3438004 -20.89518 5.620925 -1.156262 -27.03189 12.4812 85.63268 24.86785 -9.522696 -0 0 23.51742 -23.12077 15.86132 15.40961 2.489475 -21.10451 -4.976837 -92.78906 18.42541 30.80221 0 0 -17.37099 2.90356 11.28509 11.81794
5.163506 97.72903 101.2068 -1.489731 -5.712128 -2.146001 6.076857 15.76307 2.466859 -0 9.232016 -0 -6.739386 -17.26458 -1.834585 4.956284 -24.17062 -1.078931 -0 14.78888 -0 1.445163 -3.17782 17.60236 0.758665 -2.019601 7.56301 0.3864449 13.07085 -5.139076 1.128925 20.36585 3.352178 -0.07807021 -20.39473 5.771428 -1.16656 -27.86153 12.05532 84.7918 23.43867 -7.615286 -0 0 25.05508 -23.69978 15.84848 16.73974 2.156253 -20.02872 -4.509895 -93.66215 18.34934 32.31756 0 0 -14.50065 1.646847 11.45376 13.01378
